<?xml version="1.0" encoding="UTF-8" standalone="no"?>
<svg width="100%" height="100%" viewBox="0 0 1800 1113" version="1.1" xmlns="http://www.w3.org/2000/svg">
    <g transform="matrix(1,0,0,1,-0,-20.292589)">
            <g id="Layer1" transform="matrix(1.500492,0,0,2.003157,-469.49558,-628.102849)">
                <path d="M1344.242,807.2C1282.233,806.564 1250.043,790.491 1246.603,788.914C1216.304,775.021 1193.562,752.057 1174.067,712.065C1166.22,695.97 1157.719,673.283 1154.839,660.707C1149.318,636.602 1147.66,612.979 1147.66,592.604C1147.66,573.492 1149.107,551.04 1154.031,527.935C1160.476,497.688 1170.482,473.31 1172.365,468.722C1189.947,425.883 1211.658,396.793 1240.267,378.997C1261.395,365.854 1292.1,355.227 1338.653,360.022C1365.554,362.793 1386.378,369.627 1400.343,375.381C1417.476,382.439 1435.429,392.483 1452.498,407.032C1468.003,420.248 1480.872,435.683 1491.072,453.126C1502.516,472.696 1508.91,493.026 1512.31,512.567C1516.17,534.749 1460.488,527.306 1457.41,512.646C1454.238,497.538 1448.854,484.455 1441.662,473.257C1434.071,461.437 1424.912,451.444 1414.502,443.151C1403.425,434.328 1391.507,427.671 1379.106,422.93C1365.643,417.783 1352.06,414.879 1338.653,413.909C1310.621,411.88 1287.89,418.688 1268.728,431.948C1248.213,446.146 1232.21,468.277 1219.318,498.133C1207.543,525.404 1201.115,554.057 1201.115,592.604C1201.115,615.041 1203.415,639.521 1210.593,662.79C1211.133,664.539 1212.714,669.665 1220.456,683.421C1233.654,706.872 1249.738,727.41 1272.981,741.318C1286.985,749.698 1309.638,759.72 1342.314,759.7C1357.233,759.69 1370.216,757.555 1381.491,754.191C1392.307,750.964 1404.074,745.842 1415.681,737.527C1426.063,730.088 1434.879,720.733 1442.074,709.707C1449.232,698.739 1454.421,686.022 1457.445,671.808C1460.444,657.715 1515.992,649.984 1512.31,672.064C1509.539,688.675 1503.885,709.767 1491.422,730.847C1481.48,747.664 1468.848,762.738 1453.524,774.916C1436.8,788.208 1419.692,795.852 1403.387,800.436C1385.057,805.59 1365.566,807.419 1344.242,807.2Z"/>
                <path d="M770.124,425.332C766.936,417.876 765.873,482.387 766.427,516.928C766.555,524.906 766.716,564.553 769.34,662.79C769.543,670.365 768.639,670.362 770.004,757.514C770.603,795.806 771.275,831.302 771.197,858.611C751.411,855.754 733.485,852.659 717.901,849.561C718.479,758.342 718.087,758.36 718.566,667.151C718.592,662.361 718.544,359.757 718.523,348.065C740.139,346.473 763.013,343.94 785.457,341.398C820.662,397.349 840.445,474.241 869.556,522.896C953.939,663.929 956.192,662.578 976.907,699.849C992.701,728.265 1011.276,764.577 1018.88,774.072C1024.03,780.504 1013.002,672.488 1012.947,663.722C1012.562,602.275 1010.209,523.877 1010.031,515.976C1008.947,467.81 1012.113,386.534 1011.01,339.414C1027.605,341.787 1044.845,344.327 1062.132,346.198C1062.257,419.866 1060.398,419.842 1060.398,545.118C1060.398,665.547 1060.367,665.552 1060.655,669.661C1065.136,733.106 1069.616,796.55 1074.097,859.994C1052.51,864.896 1030.234,867.491 1013.538,868.939C978.195,815.706 937.064,714.189 905.063,662.62C840.659,558.835 815.845,518.684 814.711,516.794C806.583,503.243 798.443,486.621 790.706,470.132C784.858,457.671 771.221,427.898 770.124,425.332Z"/>
                <path d="M312.894,425.594L312.894,377.051C421.344,376.78 535.237,363.485 641.256,354.102C640.912,372.607 640.568,391.112 640.225,409.618C603.549,395.691 518.278,379.125 505.213,418.195C498.527,438.189 493.718,488.387 493.357,540.448C493.06,583.178 494.379,628.906 495.658,662.805C495.714,664.272 502.604,772.575 507.27,817.815C488.453,815.955 469.568,814.337 450.942,812.983C453.912,761.38 454.977,697.608 456.745,644.558C459.409,564.662 458.178,526.296 458.074,515.858C457.373,445.474 451.288,426.369 449.627,421.349C445.215,408.018 428.374,391.175 337.689,417.711C324.344,421.616 314.608,424.98 312.894,425.594Z"/>
            </g>
    </g>
</svg>
