<?xml version="1.0" encoding="UTF-8" standalone="no"?>
<!DOCTYPE svg PUBLIC "-//W3C//DTD SVG 1.1//EN" "http://www.w3.org/Graphics/SVG/1.1/DTD/svg11.dtd">
<svg width="100%" height="100%" viewBox="0 0 1800 886" version="1.1" xmlns="http://www.w3.org/2000/svg" xmlns:xlink="http://www.w3.org/1999/xlink" xml:space="preserve" xmlns:serif="http://www.serif.com/" style="fill-rule:evenodd;clip-rule:evenodd;stroke-linejoin:round;stroke-miterlimit:2;">
    <g transform="matrix(1,0,0,1,-0,-115.612358)">
        <g id="Layer1" transform="matrix(1.500492,0,0,2.003157,-469.49558,-628.102849)">
            <path d="M1338.653,813.359C1301.861,813.359 1269.065,804.45 1240.267,786.632C1211.469,768.813 1188.835,743.386 1172.365,710.35C1155.895,677.314 1147.66,638.065 1147.66,592.604C1147.66,546.951 1155.895,507.606 1172.365,474.57C1188.835,441.534 1211.469,416.058 1240.267,398.144C1269.065,380.229 1301.861,371.272 1338.653,371.272C1360.42,371.272 1380.984,374.45 1400.343,380.807C1419.703,387.164 1437.087,396.458 1452.498,408.69C1467.908,420.922 1480.767,435.755 1491.072,453.188C1501.378,470.621 1508.457,490.414 1512.31,512.566C1516.162,534.719 1460.492,527.399 1457.41,512.566C1454.328,497.734 1449.079,484.731 1441.662,473.559C1434.246,462.386 1425.193,452.947 1414.502,445.242C1403.811,437.537 1392.012,431.758 1379.106,427.905C1366.199,424.052 1352.715,422.126 1338.653,422.126C1312.841,422.126 1289.532,428.676 1268.728,441.774C1247.924,454.873 1231.454,474.088 1219.318,499.419C1207.183,524.75 1201.115,555.812 1201.115,592.604C1201.115,629.204 1207.231,660.17 1219.463,685.501C1231.695,710.831 1248.213,729.998 1269.017,743.001C1289.821,756.003 1313.033,762.505 1338.653,762.505C1352.715,762.505 1366.199,760.53 1379.106,756.581C1392.012,752.632 1403.811,746.853 1414.502,739.245C1425.193,731.636 1434.246,722.197 1441.662,710.928C1449.079,699.659 1454.328,686.704 1457.41,672.065C1460.492,657.425 1515.97,650.105 1512.31,672.065C1508.65,694.024 1501.667,713.673 1491.361,731.01C1481.055,748.346 1468.197,763.179 1452.787,775.507C1437.376,787.836 1419.992,797.226 1400.632,803.68C1381.273,810.133 1360.613,813.359 1338.653,813.359Z"/>
            <path d="M769.434,443.073C760.488,427.183 773.763,807.58 773.763,807.58L718.575,807.58L718.575,377.051L783.299,377.051C783.299,377.051 981.822,717.179 1009.056,742.274C1019.674,752.058 1005.498,377.051 1005.498,377.051L1060.398,377.051L1060.398,807.58L995.096,807.58C995.096,807.58 778.381,458.962 769.434,443.073Z"/>
            <path d="M312.894,425.594L312.894,377.051L638.248,377.051L638.248,425.594C638.248,425.594 518.292,383.183 503.31,425.594C480.82,489.258 503.31,807.58 503.31,807.58L448.41,807.58C448.41,807.58 470.996,489.258 448.41,425.594C433.307,383.021 312.894,425.594 312.894,425.594Z"/>
        </g>
    </g>
</svg>
